grf
version=1
nRows=11
nColumns=37
inDegrees=no
endheader
time	ground_force_1_vx	ground_force_1_vy	ground_force_1_vz	ground_force_1_px	ground_force_1_py	ground_force_1_pz	ground_moment_1_mx	ground_moment_1_my	ground_moment_1_mz	ground_force_2_vx	ground_force_2_vy	ground_force_2_vz	ground_force_2_px	ground_force_2_py	ground_force_2_pz	ground_moment_2_mx	ground_moment_2_my	ground_moment_2_mz	ground_force_3_vx	ground_force_3_vy	ground_force_3_vz	ground_force_3_px	ground_force_3_py	ground_force_3_pz	ground_moment_3_mx	ground_moment_3_my	ground_moment_3_mz	ground_force_4_vx	ground_force_4_vy	ground_force_4_vz	ground_force_4_px	ground_force_4_py	ground_force_4_pz	ground_moment_4_mx	ground_moment_4_my	ground_moment_4_mz
      3.23000000	      0.00000000	     -0.00000000	      0.00000000	      0.00000000	      0.00000000	      0.00000000	      0.00000000	      0.00000000	      0.00000000	     47.39117050	     11.64213371	   -421.53201294	   -337.55067709	  -1082.79144474	      0.00000000	      0.00000000	     -0.00000000	   8401.49723942	     50.86593638	      1.16197821	   -363.11767578	   -332.69146935	   -750.72521078	      0.00000000	      0.00000000	     -0.00000000	  -8461.12797717	      0.00000000	     -0.00000000	      0.00000000	      0.00000000	      0.00000000	      0.00000000	      0.00000000	      0.00000000	      0.00000000
      3.24000000	      0.00000000	     -0.00000000	      0.00000000	      0.00000000	      0.00000000	      0.00000000	      0.00000000	      0.00000000	      0.00000000	     53.91665268	     11.75182343	   -452.85626221	   -334.09275194	  -1084.88734725	      0.00000000	      0.00000000	      0.00000000	   8685.50908602	     56.48142644	      2.34400995	   -393.33309937	   -331.69192985	   -751.97810323	      0.00000000	      0.00000000	     -0.00000000	  -9223.88003373	      0.00000000	     -0.00000000	      0.00000000	      0.00000000	      0.00000000	      0.00000000	      0.00000000	      0.00000000	      0.00000000
      3.25000000	      0.00000000	     -0.00000000	      0.00000000	      0.00000000	      0.00000000	      0.00000000	      0.00000000	      0.00000000	      0.00000000	     60.42846298	     11.14130020	   -485.64852905	   -332.53522182	  -1084.59500220	      0.00000000	      0.00000000	     -0.00000000	   8728.38381087	     58.89723622	      4.05609522	   -426.82211304	   -328.67288017	   -752.65030497	      0.00000000	      0.00000000	     -0.00000000	  -9857.65846792	      0.00000000	     -0.00000000	      0.00000000	      0.00000000	      0.00000000	      0.00000000	      0.00000000	      0.00000000	      0.00000000
      3.26000000	      0.00000000	     -0.00000000	      0.00000000	      0.00000000	      0.00000000	      0.00000000	      0.00000000	      0.00000000	      0.00000000	     69.13815308	     11.73932266	   -522.75756836	   -329.96396532	  -1085.06703764	      0.00000000	      0.00000000	      0.00000000	   9004.66446209	     58.26975660	      3.19933716	   -454.64749146	   -324.09662905	   -751.67688648	      0.00000000	      0.00000000	     -0.00000000	 -10522.33114982	      0.00000000	     -0.00000000	      0.00000000	      0.00000000	      0.00000000	      0.00000000	      0.00000000	      0.00000000	      0.00000000
      3.27000000	      0.00000000	     -0.00000000	      0.00000000	      0.00000000	      0.00000000	      0.00000000	      0.00000000	      0.00000000	      0.00000000	     73.92375946	     13.43965244	   -552.87744141	   -325.77255180	  -1085.55356873	      0.00000000	      0.00000000	      0.00000000	   8813.94473446	     53.64406589	      0.35974397	   -478.36325073	   -318.61390454	   -750.66840994	      0.00000000	      0.00000000	     -0.00000000	 -11128.79235110	      0.00000000	     -0.00000000	      0.00000000	      0.00000000	      0.00000000	      0.00000000	      0.00000000	      0.00000000	      0.00000000
      3.28000000	      0.00000000	     -0.00000000	      0.00000000	      0.00000000	      0.00000000	      0.00000000	      0.00000000	      0.00000000	      0.00000000	     75.74598694	     14.82065964	   -571.46997070	   -320.18098030	  -1085.21607602	      0.00000000	      0.00000000	      0.00000000	   8900.74115247	     50.48283744	     -2.67513478	   -505.69744873	   -312.28623416	   -750.03108175	      0.00000000	      0.00000000	     -0.00000000	 -11792.02716225	      0.00000000	     -0.00000000	      0.00000000	      0.00000000	      0.00000000	      0.00000000	      0.00000000	      0.00000000	      0.00000000
      3.29000000	      0.00000000	     -0.00000000	      0.00000000	      0.00000000	      0.00000000	      0.00000000	      0.00000000	      0.00000000	      0.00000000	     73.43870544	     15.90206909	   -584.53717041	   -313.36190857	  -1085.26852947	      0.00000000	      0.00000000	      0.00000000	   8818.65738044	     46.83300719	     -7.07826022	   -532.85491943	   -305.20309937	   -749.31156599	      0.00000000	      0.00000000	     -0.00000000	 -12003.72252479	      0.00000000	     -0.00000000	      0.00000000	      0.00000000	      0.00000000	      0.00000000	      0.00000000	      0.00000000	      0.00000000
      3.30000000	      0.00000000	     -0.00000000	      0.00000000	      0.00000000	      0.00000000	      0.00000000	      0.00000000	      0.00000000	      0.00000000	     69.40577698	     18.56920052	   -598.66381836	   -305.28078970	  -1085.16178852	      0.00000000	      0.00000000	      0.00000000	   8670.47762176	     37.83021825	    -11.66459986	   -544.02679443	   -296.16970095	   -749.55765502	      0.00000000	      0.00000000	     -0.00000000	 -11977.70767646	      0.00000000	     -0.00000000	      0.00000000	      0.00000000	      0.00000000	      0.00000000	      0.00000000	      0.00000000	      0.00000000
      3.31000000	      0.00000000	     -0.00000000	      0.00000000	      0.00000000	      0.00000000	      0.00000000	      0.00000000	      0.00000000	      0.00000000	     65.08175659	     21.37948608	   -614.01611328	   -298.31862498	  -1085.64763957	      0.00000000	      0.00000000	      0.00000000	   8237.78263444	     27.39347530	    -13.56142379	   -546.14459229	   -285.05743126	   -748.86576722	      0.00000000	      0.00000000	     -0.00000000	 -11775.40763044	      0.00000000	     -0.00000000	      0.00000000	      0.00000000	      0.00000000	      0.00000000	      0.00000000	      0.00000000	      0.00000000
      3.32000000	      0.00000000	     -0.00000000	      0.00000000	      0.00000000	      0.00000000	      0.00000000	      0.00000000	      0.00000000	      0.00000000	     60.35478973	     23.25722122	   -624.46820068	   -290.22315922	  -1084.84813699	      0.00000000	      0.00000000	      0.00000000	   7851.06334180	     17.41046780	    -14.31404838	   -547.72503662	   -274.70760914	   -749.22156352	      0.00000000	      0.00000000	     -0.00000000	 -11796.13194604	      0.00000000	     -0.00000000	      0.00000000	      0.00000000	      0.00000000	      0.00000000	      0.00000000	      0.00000000	      0.00000000
      3.33000000	      0.00000000	     -0.00000000	      0.00000000	      0.00000000	      0.00000000	      0.00000000	      0.00000000	      0.00000000	      0.00000000	     54.51903534	     25.68665886	   -624.42211914	   -281.88998343	  -1083.90731860	      0.00000000	      0.00000000	      0.00000000	   7339.32695992	      8.72289726	    -13.94900494	   -545.44390869	   -265.29591426	   -750.11057676	      0.00000000	      0.00000000	     -0.00000000	 -11475.25896092	      0.00000000	     -0.00000000	      0.00000000	      0.00000000	      0.00000000	      0.00000000	      0.00000000	      0.00000000	      0.00000000
